<svg width="25" height="25" viewBox="0 0 25 25" fill="none" xmlns="http://www.w3.org/2000/svg">
<path d="M22.4032 18.04L23.6327 19.9691H1.36734L2.59675 18.04L2.6923 17.8901L2.71038 17.7132L3.6028 8.98451C3.60287 8.98384 3.60294 8.98316 3.60301 8.98249C4.10204 4.3657 7.78765 0.75 12.5 0.75C17.2124 0.75 20.898 4.36572 21.397 8.98253C21.3971 8.98319 21.3971 8.98385 21.3972 8.98451L22.2896 17.7132L22.3077 17.8901L22.4032 18.04ZM12.3215 24.25C10.5182 24.25 9.05154 23.0413 8.69186 21.4692H15.9512C15.5915 23.0413 14.1248 24.25 12.3215 24.25Z" stroke="black" stroke-width="1.5"/>
</svg>
